<svg width="153" height="21" viewBox="0 0 153 21" fill="none" xmlns="http://www.w3.org/2000/svg">
<g clip-path="url(#clip0_383_578)">
<path d="M10.0687 0H0.874275C0.391602 0 0 0.37625 0 0.84V20.16C0 20.6238 0.391602 21 0.874275 21H2.62283C3.1055 21 3.4971 20.6238 3.4971 20.16V3.78C3.4971 3.54783 3.6926 3.36 3.93424 3.36H10.1167C12.1512 3.36 13.9253 4.86617 13.9866 6.82033C14.0497 8.84217 12.3625 10.5 10.2727 10.5H6.55707C6.07439 10.5 5.68279 10.8762 5.68279 11.34V13.02C5.68279 13.4838 6.07439 13.86 6.55707 13.86H10.2727C14.3721 13.86 17.6725 10.5747 17.477 6.59517C17.2949 2.86767 13.9526 0 10.0687 0Z" fill="white"/>
<path d="M36.5008 0H21.8567C21.374 0 20.9824 0.37625 20.9824 0.84V20.16C20.9824 20.6238 21.374 21 21.8567 21H36.5008C36.9835 21 37.3751 20.6238 37.3751 20.16V18.48C37.3751 18.0162 36.9835 17.64 36.5008 17.64H24.9167C24.675 17.64 24.4795 17.4522 24.4795 17.22V3.78C24.4795 3.54783 24.675 3.36 24.9167 3.36H36.5008C36.9835 3.36 37.3751 2.98375 37.3751 2.52V0.84C37.3751 0.37625 36.9835 0 36.5008 0Z" fill="white"/>
<path d="M34.3171 8.80078H27.5378C27.055 8.80078 26.6636 9.17686 26.6636 9.64078V11.3208C26.6636 11.7847 27.055 12.1608 27.5378 12.1608H34.3171C34.8 12.1608 35.1914 11.7847 35.1914 11.3208V9.64078C35.1914 9.17686 34.8 8.80078 34.3171 8.80078Z" fill="white"/>
<path d="M57.265 0H42.6209C42.1382 0 41.7466 0.37625 41.7466 0.84V20.16C41.7466 20.6238 42.1382 21 42.6209 21H57.265C57.7476 21 58.1392 20.6238 58.1392 20.16V18.48C58.1392 18.0162 57.7476 17.64 57.265 17.64H45.6808C45.4392 17.64 45.2437 17.4522 45.2437 17.22V3.78C45.2437 3.54783 45.4392 3.36 45.6808 3.36H57.265C57.7476 3.36 58.1392 2.98375 58.1392 2.52V0.84C58.1392 0.37625 57.7476 0 57.265 0Z" fill="white"/>
<path d="M55.0813 8.80078H48.302C47.8192 8.80078 47.4277 9.17686 47.4277 9.64078V11.3208C47.4277 11.7847 47.8192 12.1608 48.302 12.1608H55.0813C55.5641 12.1608 55.9556 11.7847 55.9556 11.3208V9.64078C55.9556 9.17686 55.5641 8.80078 55.0813 8.80078Z" fill="white"/>
<path d="M117.592 0H102.948C102.465 0 102.073 0.37625 102.073 0.84V20.16C102.073 20.6238 102.465 21 102.948 21H117.592C118.074 21 118.466 20.6238 118.466 20.16V18.48C118.466 18.0162 118.074 17.64 117.592 17.64H106.007C105.766 17.64 105.57 17.4522 105.57 17.22V3.78C105.57 3.54783 105.766 3.36 106.007 3.36H117.592C118.074 3.36 118.466 2.98375 118.466 2.52V0.84C118.466 0.37625 118.074 0 117.592 0Z" fill="white"/>
<path d="M115.408 8.80078H108.629C108.146 8.80078 107.754 9.17686 107.754 9.64078V11.3208C107.754 11.7847 108.146 12.1608 108.629 12.1608H115.408C115.891 12.1608 116.282 11.7847 116.282 11.3208V9.64078C116.282 9.17686 115.891 8.80078 115.408 8.80078Z" fill="white"/>
<path d="M87.8648 17.22V0.84C87.8648 0.37625 87.4732 0 86.9905 0H85.242C84.7593 0 84.3677 0.37625 84.3677 0.84V20.16C84.3677 20.6238 84.7593 21 85.242 21H97.7022C98.1849 21 98.5765 20.6238 98.5765 20.16V18.48C98.5765 18.0162 98.1849 17.64 97.7022 17.64H88.3019C88.0603 17.64 87.8648 17.4522 87.8648 17.22Z" fill="white"/>
<path d="M73.1198 13.8437C77.0978 13.6669 80.2367 10.4043 79.9817 6.4855C79.7425 2.80467 76.4287 0 72.5904 0H63.385C62.9023 0 62.5107 0.37625 62.5107 0.84V20.16C62.5107 20.6238 62.9023 21 63.385 21H65.1336C65.6162 21 66.0078 20.6238 66.0078 20.16V3.78C66.0078 3.54783 66.2033 3.36 66.445 3.36H72.6274C74.662 3.36 76.436 4.86617 76.4973 6.82033C76.5605 8.84217 74.8732 10.5 72.7835 10.5H69.0696C68.587 10.5 68.1954 10.8762 68.1954 11.34V13.1682C68.1954 13.6138 68.3793 14.0408 68.7078 14.3558L75.1106 20.5077C75.4385 20.8227 75.8835 21 76.3468 21H79.513C79.9021 21 80.0976 20.5473 79.822 20.2831L73.1198 13.8437Z" fill="white"/>
<path d="M129.531 6.42014L127.421 13.6366C126.819 15.6951 124.99 17.2596 122.741 17.556C122.3 17.6143 121.963 17.9608 121.963 18.3884V20.0812C121.963 20.573 122.402 20.9702 122.912 20.9201C126.691 20.5467 129.789 17.9684 130.789 14.5466L132.898 7.33014C133.5 5.27156 135.329 3.70706 137.579 3.41072C138.02 3.35239 138.356 3.00589 138.356 2.57831V0.885475C138.356 0.393725 137.917 -0.00352521 137.408 0.0466415C133.629 0.419975 130.531 2.99831 129.531 6.42014Z" fill="white"/>
<path d="M144.175 6.42014L142.065 13.6366C141.463 15.6951 139.634 17.2596 137.385 17.556C136.944 17.6143 136.607 17.9608 136.607 18.3884V20.0812C136.607 20.573 137.046 20.9702 137.556 20.9201C141.335 20.5467 144.433 17.9684 145.433 14.5466L147.543 7.33014C148.144 5.27156 149.974 3.70706 152.223 3.41072C152.664 3.35239 153 3.00589 153 2.57831V0.885475C153 0.393725 152.561 -0.00352521 152.052 0.0466415C148.273 0.419975 145.175 2.99831 144.175 6.42014Z" fill="white"/>
<path d="M153 19.3194C153 20.2772 152.247 21 151.251 21C150.255 21 149.502 20.2772 149.502 19.3194C149.502 18.3616 150.255 17.6394 151.251 17.6394C152.247 17.6394 153 18.3622 153 19.3194ZM152.568 19.3194C152.568 18.5867 151.983 18.0057 151.251 18.0057C150.519 18.0057 149.934 18.5867 149.934 19.3194C149.934 20.0521 150.519 20.6331 151.251 20.6331C151.983 20.6331 152.568 20.0521 152.568 19.3194ZM151.627 19.5399L151.963 20.0917C152.003 20.1652 151.973 20.2183 151.881 20.2183H151.571C151.51 20.2183 151.47 20.1938 151.439 20.1402L151.119 19.5002H151.109V20.1104C151.109 20.1787 151.068 20.2177 150.997 20.2177H150.738C150.667 20.2177 150.626 20.1787 150.626 20.1104V18.5278C150.626 18.4596 150.667 18.4205 150.738 18.4205H151.277C151.745 18.4205 151.984 18.6159 151.984 19.0015C151.984 19.2751 151.867 19.4606 151.628 19.5393L151.627 19.5399ZM151.276 19.1928C151.414 19.1928 151.49 19.1292 151.49 19.012C151.49 18.8947 151.414 18.8265 151.276 18.8265H151.109V19.1934H151.276V19.1928Z" fill="white"/>
</g>
<defs>
<clipPath id="clip0_383_578">
<rect width="153" height="21" fill="white"/>
</clipPath>
</defs>
</svg>
