<svg width="132" height="35" viewBox="0 0 132 35" fill="none" xmlns="http://www.w3.org/2000/svg">
<g clip-path="url(#clip0_383_569)">
<path d="M114.602 10.8265C114.275 11.841 113.918 12.8397 113.528 13.7914C113.528 13.7914 110.793 20.5236 110.717 20.7093H118.439C118.112 19.8909 115.663 13.7521 115.663 13.7495C115.317 12.8554 114.935 11.8017 114.6 10.8265H114.602Z" fill="white"/>
<path d="M126.916 26.048C126.916 25.8755 126.802 25.8127 126.589 25.8127C126.537 25.8127 126.497 25.8127 126.456 25.818V26.2964C126.478 26.2964 126.518 26.3017 126.581 26.3017C126.794 26.3017 126.916 26.1971 126.916 26.048Z" fill="white"/>
<path d="M43.0919 9.73633C42.1422 9.73633 41.0193 9.77293 40.0669 9.83568V25.1356C40.8245 25.201 42.0502 25.2349 42.8944 25.2349C48.544 25.2349 51.6556 22.4976 51.6556 17.5249C51.6556 12.5521 48.774 9.73894 43.0892 9.73894L43.0919 9.73633Z" fill="white"/>
<path d="M124.592 0H7.40834C3.31725 0 0 3.13476 0 6.99895V27.9984C0 31.8652 3.31725 35 7.40834 35H124.592C128.683 35 132 31.8652 132 27.9984V6.99895C132 3.13476 128.683 0 124.592 0ZM18.1502 29.9671C11.034 29.9671 5.26809 24.3905 5.26809 17.517C5.26809 10.6435 11.034 5.06947 18.1502 5.06947C25.2663 5.06947 31.0322 10.6435 31.0322 17.517C31.0322 24.3905 25.2636 29.9671 18.1502 29.9671ZM42.5831 27.6115L39.4579 27.567L37.1418 27.5331V7.51401L40.0749 7.4774L43.5599 7.43557C50.952 7.43557 54.7021 10.7664 54.7021 17.334C54.7021 23.9015 50.1727 27.6089 42.5831 27.6089V27.6115ZM71.5508 9.81213H63.3064V16.0712H71.1964V18.3327H63.3064V25.1957H71.5508V27.5331H60.3815V7.51139H71.5508V9.81213ZM89.5143 27.5357H78.8212V7.51139H81.7488V25.1591H89.5143V27.5357ZM104.899 9.88795H98.6165V27.5357H95.6888V9.88795H89.444V7.51139H104.896V9.88795H104.899ZM121.182 27.5357C121.182 27.5357 119.383 23.0597 119.348 22.9734H109.807C109.772 23.0597 107.935 27.5357 107.935 27.5357H104.934L113.225 7.51139H116.25L124.418 27.5357H121.185H121.182ZM126.662 27.5697C125.977 27.5697 125.42 27.0311 125.42 26.3696C125.42 25.7081 125.977 25.1696 126.662 25.1696C127.346 25.1696 127.903 25.7081 127.903 26.3696C127.903 27.0311 127.346 27.5697 126.662 27.5697Z" fill="white"/>
<path d="M126.661 25.2977C126.05 25.2977 125.555 25.7788 125.555 26.367C125.555 26.9553 126.05 27.4364 126.661 27.4364C127.273 27.4364 127.768 26.9579 127.768 26.367C127.768 25.7762 127.27 25.2977 126.661 25.2977ZM126.964 27.0285L126.464 26.4115H126.458V27.0285H126.301V25.6977C126.388 25.6925 126.477 25.6925 126.626 25.6925C126.886 25.6925 127.081 25.7788 127.081 26.0272C127.081 26.2755 126.886 26.3932 126.634 26.4037C126.672 26.4481 126.721 26.5004 126.756 26.5422L127.17 27.0285H126.967H126.964Z" fill="white"/>
<path d="M20.3254 11.8227C21.5728 10.6174 21.589 8.68272 20.3633 7.50097C19.1376 6.31661 17.1353 6.33492 15.8907 7.53757C15.6553 7.76503 15.4713 8.0291 15.3144 8.29054C15.1601 8.54676 9.5376 17.9667 9.5376 17.9667C9.5376 17.9667 19.2783 12.526 19.5435 12.3822C19.8194 12.2306 20.0873 12.0528 20.3254 11.8253V11.8227Z" fill="white"/>
<path d="M11.9592 18.5418C10.2573 18.1 8.5148 19.0543 8.06564 20.67C7.61649 22.2858 8.63385 23.9538 10.3358 24.3956C10.6577 24.4793 10.9851 24.5002 11.2963 24.5002C11.6021 24.5002 22.8553 24.4976 22.8553 24.4976C22.8553 24.4976 13.1092 19.0647 12.8467 18.9157C12.5734 18.7614 12.2812 18.6255 11.9565 18.5392L11.9592 18.5418Z" fill="white"/>
<path d="M22.0545 21.2531C22.0545 21.559 22.0761 21.8727 22.1627 22.1839C22.62 23.8284 24.3435 24.8088 26.0184 24.3774C27.6905 23.9434 28.6781 22.2597 28.2209 20.6152C28.1343 20.304 27.9909 20.0191 27.8339 19.7576C27.6797 19.5014 22.0518 10.0867 22.0518 10.0867C22.0518 10.0867 22.0572 20.9577 22.0518 21.2531H22.0545Z" fill="white"/>
</g>
<defs>
<clipPath id="clip0_383_569">
<rect width="132" height="35" fill="white"/>
</clipPath>
</defs>
</svg>
