<svg width="124" height="25" viewBox="0 0 124 25" fill="none" xmlns="http://www.w3.org/2000/svg">
<g clip-path="url(#clip0_383_562)">
<path d="M4.06734 21.2109H15.5773C18.3002 21.2109 20.263 19.917 20.263 17.3946C20.263 14.4245 17.5117 13.4418 14.0967 13.4418H4.06734V21.2109ZM4.06734 10.6628H15.0838C17.6762 10.6628 19.4121 9.0194 19.4121 6.97201C19.4121 5.17577 18.0052 3.78354 14.9193 3.78354H4.06734V10.6628ZM0.720436 2.11287C0.720436 1.5123 0.527563 1.38673 0 1.38673V1.01001H15.7702C19.4064 1.01001 22.7533 3.22119 22.7533 7.25591C22.7533 9.30876 21.511 11.0723 19.1511 11.924V11.984C22.0328 12.9013 23.6099 14.6702 23.6099 17.6403C23.6099 21.9316 20.0701 23.9845 16.2977 23.9845H0V23.6077C0.527563 23.6077 0.720436 23.4822 0.720436 22.8816V2.11287Z" fill="white"/>
<path d="M55.0195 23.9899V23.6132C55.6095 23.6132 55.808 23.4876 55.808 22.8871V2.11287C55.808 1.5123 55.6095 1.38673 55.0195 1.38673V1.01001H59.9378V1.38673C59.3478 1.38673 59.1493 1.5123 59.1493 2.11287V22.8871C59.1493 23.4876 59.3478 23.6132 59.9378 23.6132V23.9899H55.0195Z" fill="white"/>
<path d="M107.708 21.6532C113.148 21.6532 117.936 18.563 117.936 12.4972C117.936 6.43151 113.148 3.34678 107.708 3.34678C102.268 3.34678 97.4802 6.43697 97.4802 12.4972C97.4802 18.5575 102.268 21.6532 107.708 21.6532ZM107.708 0.693359C114.952 0.693359 121.283 5.11026 121.283 12.4972C121.283 19.8842 114.958 24.3066 107.708 24.3066C100.458 24.3066 94.1333 19.8897 94.1333 12.4972C94.1333 5.1048 100.458 0.693359 107.708 0.693359Z" fill="white"/>
<path d="M87.2124 11.0122H80.6377L88.7894 1.01005H68.067C67.477 1.01005 67.2161 0.884473 67.0799 0H66.6885V4.79908H67.0799C67.2104 3.91461 67.4713 3.78904 68.067 3.78904H82.6232L76.7576 11.0122H67.7266C67.165 11.0122 67.0459 10.8484 67.0459 10.3625H66.6885V14.4409H67.0459C67.0459 13.9496 67.165 13.7912 67.7266 13.7912H74.5055L66.229 23.9954H86.8153C87.4053 23.9954 87.6662 24.121 87.7967 25.0055H88.1881V20.2064H87.7967C87.6662 21.0908 87.4053 21.2164 86.8153 21.2164H72.3215L78.3686 13.7912H87.2011C87.7627 13.7912 87.8818 13.955 87.8818 14.4409H88.2392V10.3625H87.8818C87.8818 10.8484 87.7627 11.0122 87.2011 11.0122" fill="white"/>
<path d="M47.6848 22.9472L41.7851 13.7258C45.6199 13.693 48.2123 11.2962 48.2123 7.50715C48.2123 3.46697 45.0016 1.00464 40.1798 1.00464H29.2825V3.78363H40.1798C43.3281 3.78363 44.8711 5.4543 44.8711 7.31606C44.8711 10.3462 42.9027 11.2907 40.8378 11.2907H29.2825V14.0643H38.3815L43.1353 21.5168C43.7252 22.4613 43.9238 22.7124 43.9238 23.0619C43.9238 23.4386 43.6969 23.5641 42.8062 23.5969V23.9736H49.0008V23.5969C48.2464 23.5641 48.0195 23.4386 47.6904 22.9363" fill="white"/>
<path d="M122.321 2.58794H122.519C122.712 2.58794 122.814 2.47874 122.814 2.24398C122.808 2.03105 122.684 1.96553 122.508 1.96553H122.321V2.58794ZM121.85 1.85088H122.593C122.854 1.85088 123.098 1.96007 123.098 2.2276C123.098 2.44599 122.945 2.59886 122.797 2.65891L123.013 2.9865C123.115 3.14483 123.257 3.2977 123.342 3.34684V3.38505H123.086C122.939 3.38505 122.837 3.11753 122.542 2.70259H122.321V3.15575C122.321 3.23764 122.343 3.25948 122.525 3.2704V3.38505H121.85V3.2704C122.037 3.25948 122.06 3.23764 122.06 3.15575V2.05835C122.06 1.97645 122.037 1.95461 121.85 1.94369V1.85088ZM121.334 2.63707C121.334 3.2977 121.872 3.87643 122.548 3.87643C123.223 3.87643 123.756 3.2977 123.756 2.63707C123.756 1.97645 123.211 1.39226 122.548 1.39226C121.884 1.39226 121.334 1.97645 121.334 2.63707ZM122.542 1.20117C123.347 1.20117 124 1.84542 124 2.63707C124 3.42873 123.347 4.06752 122.542 4.06752C121.736 4.06752 121.084 3.42327 121.084 2.63707C121.084 1.85088 121.736 1.20117 122.542 1.20117Z" fill="white"/>
</g>
<defs>
<clipPath id="clip0_383_562">
<rect width="124" height="25" fill="white"/>
</clipPath>
</defs>
</svg>
